# xmcd
#
# Track frame offsets: 
#        150
#        20440
#        41147
#        64850
#        88010
#        111347
#        133547
#        155690
#        192177
#        214840
#        277372
#
# Disc length: 4440 seconds
#
# Revision: 8
# Processed by: cddbd v1.5.1PL2 Copyright (c) Steve Scherf et al.
# Submitted via: ExactAudioCopy v0.95b3
#
DISCID=a811560b
DTITLE=move - REWIND ~singles collection+~  [CD1]
DYEAR=2004
DGENRE=JPop
TTITLE0=Gamble Rumble
TTITLE1=SUPER SONIC DANCE
TTITLE2=FLY ME SO HIGH
TTITLE3=MUGEN [from the album "Operation Overload 7"]
TTITLE4=Blazin' Beat
TTITLE5=sweet vibration (electro house mix)
TTITLE6=words of the mind -brandnew journey-
TTITLE7=blue jewel [from the single "come together"]
TTITLE8=Romancing Train
TTITLE9=come together (ORIGINAL)
TTITLE10=@
EXTD=YEAR: 2004
EXTT0=
EXTT1=
EXTT2=
EXTT3=
EXTT4=
EXTT5=
EXTT6=
EXTT7=
EXTT8=
EXTT9=
EXTT10=
PLAYORDER=
